<svg width="342" height="60" viewBox="0 0 342 60" fill="none" xmlns="http://www.w3.org/2000/svg">
<path d="M35.8438 39.1169C35.8438 40.9711 35.4896 42.7107 34.7812 44.3357C34.0729 45.9607 33.1042 47.3878 31.875 48.6169C30.6667 49.8253 29.25 50.7836 27.625 51.4919C26 52.2003 24.2604 52.5544 22.4062 52.5544H0V7.74194H22.4062C24.2604 7.74194 26 8.09611 27.625 8.80444C29.25 9.51278 30.6667 10.4815 31.875 11.7107C33.1042 12.919 34.0729 14.3357 34.7812 15.9607C35.4896 17.5857 35.8438 19.3253 35.8438 21.1794C35.8438 22.0128 35.7292 22.8669 35.5 23.7419C35.2708 24.6169 34.9479 25.4607 34.5312 26.2732C34.1146 27.0857 33.6146 27.8253 33.0312 28.4919C32.4479 29.1586 31.8021 29.7107 31.0938 30.1482C31.8229 30.544 32.4792 31.0857 33.0625 31.7732C33.6458 32.4399 34.1458 33.1794 34.5625 33.9919C34.9792 34.8044 35.2917 35.6586 35.5 36.5544C35.7292 37.4294 35.8438 38.2836 35.8438 39.1169ZM8.96875 43.5857H22.4062C23.0312 43.5857 23.6146 43.4711 24.1562 43.2419C24.6979 43.0128 25.1667 42.7003 25.5625 42.3044C25.9792 41.8878 26.3021 41.4086 26.5312 40.8669C26.7604 40.3253 26.875 39.7419 26.875 39.1169C26.875 38.4919 26.7604 37.9086 26.5312 37.3669C26.3021 36.8253 25.9792 36.3565 25.5625 35.9607C25.1667 35.544 24.6979 35.2211 24.1562 34.9919C23.6146 34.7628 23.0312 34.6482 22.4062 34.6482H8.96875V43.5857ZM8.96875 25.6794H22.4062C23.0312 25.6794 23.6146 25.5649 24.1562 25.3357C24.6979 25.1065 25.1667 24.794 25.5625 24.3982C25.9792 23.9815 26.3021 23.5024 26.5312 22.9607C26.7604 22.3982 26.875 21.8044 26.875 21.1794C26.875 20.5544 26.7604 19.9711 26.5312 19.4294C26.3021 18.8878 25.9792 18.419 25.5625 18.0232C25.1667 17.6065 24.6979 17.2836 24.1562 17.0544C23.6146 16.8253 23.0312 16.7107 22.4062 16.7107H8.96875V25.6794Z" fill="#FFF4E6"/>
<path d="M46.7789 52.5544H38.2477V19.0857H40.3102L43.1227 23.0544C44.4977 21.8044 46.0602 20.8461 47.8102 20.1794C49.5602 19.4919 51.3727 19.1482 53.2477 19.1482H60.7789V27.6482H53.2477C52.3518 27.6482 51.5081 27.8149 50.7164 28.1482C49.9248 28.4815 49.2373 28.9399 48.6539 29.5232C48.0706 30.1065 47.6123 30.794 47.2789 31.5857C46.9456 32.3774 46.7789 33.2211 46.7789 34.1169V52.5544Z" fill="#FFF4E6"/>
<path d="M75.8727 43.7419C76.206 43.8461 76.5393 43.919 76.8727 43.9607C77.206 43.9815 77.5393 43.9919 77.8727 43.9919C78.706 43.9919 79.5081 43.8774 80.2789 43.6482C81.0498 43.419 81.7685 43.0961 82.4352 42.6794C83.1227 42.2419 83.7268 41.7211 84.2477 41.1169C84.7893 40.4919 85.2268 39.8044 85.5602 39.0544L91.8102 45.3357C91.0185 46.4607 90.1018 47.4711 89.0602 48.3669C88.0393 49.2628 86.9248 50.0232 85.7164 50.6482C84.5289 51.2732 83.2685 51.7419 81.9352 52.0544C80.6227 52.3878 79.2685 52.5544 77.8727 52.5544C75.5185 52.5544 73.2998 52.1169 71.2164 51.2419C69.1539 50.3669 67.3414 49.1482 65.7789 47.5857C64.2373 46.0232 63.0185 44.169 62.1227 42.0232C61.2268 39.8565 60.7789 37.4815 60.7789 34.8982C60.7789 32.2524 61.2268 29.8357 62.1227 27.6482C63.0185 25.4607 64.2373 23.5961 65.7789 22.0544C67.3414 20.5128 69.1539 19.3149 71.2164 18.4607C73.2998 17.6065 75.5185 17.1794 77.8727 17.1794C79.2685 17.1794 80.6331 17.3461 81.9664 17.6794C83.2998 18.0128 84.5602 18.4919 85.7477 19.1169C86.956 19.7419 88.081 20.5128 89.1227 21.4294C90.1643 22.3253 91.081 23.3357 91.8727 24.4607L75.8727 43.7419ZM80.2477 26.1482C79.8518 26.0024 79.456 25.9086 79.0602 25.8669C78.6852 25.8253 78.2893 25.8044 77.8727 25.8044C76.706 25.8044 75.6018 26.0232 74.5602 26.4607C73.5393 26.8774 72.6435 27.4815 71.8727 28.2732C71.1227 29.0649 70.5289 30.0232 70.0914 31.1482C69.6539 32.2524 69.4352 33.5024 69.4352 34.8982C69.4352 35.2107 69.4456 35.5649 69.4664 35.9607C69.5081 36.3565 69.5602 36.7628 69.6227 37.1794C69.706 37.5753 69.7998 37.9607 69.9039 38.3357C70.0081 38.7107 70.1435 39.044 70.3102 39.3357L80.2477 26.1482Z" fill="#FFF4E6"/>
<path d="M136.257 39.8357C136.257 41.5857 135.923 43.2419 135.257 44.8044C134.59 46.3461 133.673 47.6899 132.507 48.8357C131.361 49.9815 130.007 50.8878 128.444 51.5544C126.902 52.2211 125.246 52.5544 123.475 52.5544C121.892 52.5544 120.371 52.2836 118.913 51.7419C117.455 51.1794 116.132 50.3669 114.944 49.3044C113.777 50.3669 112.465 51.1794 111.007 51.7419C109.569 52.2836 108.048 52.5544 106.444 52.5544C104.673 52.5544 103.017 52.2211 101.475 51.5544C99.9337 50.8878 98.5795 49.9815 97.4128 48.8357C96.267 47.6899 95.3608 46.3461 94.6941 44.8044C94.0274 43.2419 93.6941 41.5857 93.6941 39.8357V18.5232H102.225V39.8357C102.225 40.419 102.33 40.9711 102.538 41.4919C102.767 41.9919 103.069 42.4399 103.444 42.8357C103.84 43.2107 104.288 43.5128 104.788 43.7419C105.309 43.9503 105.861 44.0544 106.444 44.0544C107.027 44.0544 107.58 43.9503 108.1 43.7419C108.621 43.5128 109.08 43.2107 109.475 42.8357C109.871 42.4399 110.173 41.9919 110.382 41.4919C110.611 40.9711 110.725 40.419 110.725 39.8357V18.5232H119.225V39.8357C119.225 40.419 119.34 40.9711 119.569 41.4919C119.798 41.9919 120.1 42.4399 120.475 42.8357C120.871 43.2107 121.319 43.5128 121.819 43.7419C122.34 43.9503 122.892 44.0544 123.475 44.0544C124.059 44.0544 124.611 43.9503 125.132 43.7419C125.652 43.5128 126.1 43.2107 126.475 42.8357C126.871 42.4399 127.184 41.9919 127.413 41.4919C127.642 40.9711 127.757 40.419 127.757 39.8357V18.5232H136.257V39.8357Z" fill="#FFF4E6"/>
<path d="M183.442 39.0245C183.442 40.8914 183.088 42.6535 182.379 44.3106C181.692 45.9468 180.734 47.3837 179.504 48.6213C178.296 49.838 176.869 50.8029 175.223 51.5161C173.598 52.2083 171.859 52.5544 170.004 52.5544C168.338 52.5544 166.734 52.2608 165.192 51.6734C163.671 51.0861 162.296 50.226 161.067 49.0933C159.838 50.226 158.452 51.0861 156.911 51.6734C155.369 52.2608 153.765 52.5544 152.098 52.5544C150.244 52.5544 148.494 52.2083 146.848 51.5161C145.223 50.8029 143.796 49.838 142.567 48.6213C141.359 47.3837 140.4 45.9468 139.692 44.3106C139.004 42.6535 138.661 40.8914 138.661 39.0245V6.80444H147.629V39.0245C147.629 39.6538 147.744 40.2517 147.973 40.818C148.202 41.3634 148.515 41.8459 148.911 42.2654C149.327 42.664 149.806 42.9786 150.348 43.2094C150.89 43.4401 151.473 43.5555 152.098 43.5555C152.723 43.5555 153.306 43.4401 153.848 43.2094C154.39 42.9786 154.859 42.664 155.254 42.2654C155.671 41.8459 155.994 41.3634 156.223 40.818C156.452 40.2517 156.567 39.6538 156.567 39.0245V6.80444H165.536V39.0245C165.536 39.6538 165.65 40.2517 165.879 40.818C166.109 41.3634 166.421 41.8459 166.817 42.2654C167.234 42.664 167.713 42.9786 168.254 43.2094C168.796 43.4401 169.379 43.5555 170.004 43.5555C170.629 43.5555 171.213 43.4401 171.754 43.2094C172.296 42.9786 172.765 42.664 173.161 42.2654C173.577 41.8459 173.9 41.3634 174.129 40.818C174.379 40.2517 174.504 39.6538 174.504 39.0245V6.80444H183.442V39.0245Z" fill="#FFF4E6"/>
<path d="M175.784 12.7548H177.231L179.557 15.9796C180.127 15.4678 180.734 14.9851 181.378 14.5317C182.007 14.093 182.672 13.7054 183.374 13.369C184.076 13.0473 184.8 12.7913 185.546 12.6012C186.277 12.4111 187.023 12.316 187.784 12.316C189.436 12.316 190.994 12.5939 192.456 13.1497C193.904 13.7054 195.177 14.5098 196.274 15.5628C197.356 16.6305 198.211 17.9321 198.84 19.4678C199.469 21.0034 199.784 22.7511 199.784 24.7109C199.784 26.5391 199.469 28.2136 198.84 29.7347C198.211 31.2703 197.356 32.5866 196.274 33.6835C195.177 34.7804 193.904 35.6286 192.456 36.2283C190.994 36.8425 189.436 37.1497 187.784 37.1497C187.023 37.1497 186.27 37.0546 185.524 36.8645C184.778 36.6743 184.054 36.4111 183.352 36.0747C182.65 35.7383 181.985 35.3434 181.356 34.8901C180.712 34.4367 180.113 33.9467 179.557 33.4202L177.231 36.2063H175.784V12.7548ZM181.816 24.7109C181.816 25.5299 181.977 26.3197 182.299 27.0802C182.606 27.8553 183.03 28.5354 183.572 29.1204C184.113 29.72 184.749 30.1954 185.48 30.5464C186.197 30.912 186.965 31.0948 187.784 31.0948C188.603 31.0948 189.378 30.9559 190.109 30.678C190.826 30.4001 191.455 29.9906 191.996 29.4495C192.522 28.9083 192.939 28.2356 193.246 27.4312C193.553 26.6414 193.707 25.7347 193.707 24.7109C193.707 23.6871 193.553 22.7731 193.246 21.9687C192.939 21.1789 192.522 20.5135 191.996 19.9723C191.455 19.4312 190.826 19.0217 190.109 18.7438C189.378 18.4659 188.603 18.327 187.784 18.327C186.965 18.327 186.197 18.5025 185.48 18.8535C184.749 19.2191 184.113 19.6944 183.572 20.2795C183.03 20.8791 182.606 21.5592 182.299 22.3197C181.977 23.0948 181.816 23.8919 181.816 24.7109Z" fill="#FFF4E6"/>
<path d="M199.784 24.7109C199.784 26.5391 199.469 28.2136 198.84 29.7347C198.211 31.2703 197.356 32.5866 196.274 33.6835C195.177 34.7804 193.904 35.6286 192.456 36.2283V37.1497H199.784V24.7109Z" fill="#FFF4E6"/>
<path d="M214.75 52.1875L202 18.7188H211.719L219.031 39.5938L226.312 18.7188H236.062L223.312 52.1875H214.75Z" fill="#FFF4E6"/>
<path d="M248.094 43.2812C248.427 43.3854 248.76 43.4583 249.094 43.5C249.427 43.5208 249.76 43.5312 250.094 43.5312C250.927 43.5312 251.729 43.4167 252.5 43.1875C253.271 42.9583 253.99 42.6354 254.656 42.2188C255.344 41.7812 255.948 41.2604 256.469 40.6562C257.01 40.0312 257.448 39.3438 257.781 38.5938L264.031 44.875C263.24 46 262.323 47.0104 261.281 47.9062C260.26 48.8021 259.146 49.5625 257.938 50.1875C256.75 50.8125 255.49 51.2812 254.156 51.5938C252.844 51.9271 251.49 52.0938 250.094 52.0938C247.74 52.0938 245.521 51.6562 243.438 50.7812C241.375 49.9062 239.562 48.6875 238 47.125C236.458 45.5625 235.24 43.7083 234.344 41.5625C233.448 39.3958 233 37.0208 233 34.4375C233 31.7917 233.448 29.375 234.344 27.1875C235.24 25 236.458 23.1354 238 21.5938C239.562 20.0521 241.375 18.8542 243.438 18C245.521 17.1458 247.74 16.7188 250.094 16.7188C251.49 16.7188 252.854 16.8854 254.188 17.2188C255.521 17.5521 256.781 18.0312 257.969 18.6562C259.177 19.2812 260.302 20.0521 261.344 20.9688C262.385 21.8646 263.302 22.875 264.094 24L248.094 43.2812ZM252.469 25.6875C252.073 25.5417 251.677 25.4479 251.281 25.4062C250.906 25.3646 250.51 25.3438 250.094 25.3438C248.927 25.3438 247.823 25.5625 246.781 26C245.76 26.4167 244.865 27.0208 244.094 27.8125C243.344 28.6042 242.75 29.5625 242.312 30.6875C241.875 31.7917 241.656 33.0417 241.656 34.4375C241.656 34.75 241.667 35.1042 241.688 35.5C241.729 35.8958 241.781 36.3021 241.844 36.7188C241.927 37.1146 242.021 37.5 242.125 37.875C242.229 38.25 242.365 38.5833 242.531 38.875L252.469 25.6875Z" fill="#FFF4E6"/>
<path d="M286.331 28.0784V21.6211C283.518 20.6513 281.45 21.8469 280.466 24.8117C281.18 26.2255 281.911 27.0683 283.231 27.552C284.016 27.8394 285.009 28 286.331 28.0784Z" fill="#854442"/>
<path d="M286.331 34.5356V28.0784C285.009 28 284.016 27.8394 283.231 27.552C281.911 27.0683 281.18 26.2255 280.466 24.8117C276.302 27.0338 274.904 30.6147 277.215 34.5964L286.331 34.5356Z" fill="#854442"/>
<path d="M286.331 34.5356L277.215 34.5964C275.694 37.6767 275.644 40.1748 276.826 41.9272C277.57 43.0307 278.803 43.8385 280.466 44.31C282.265 42.2327 283.508 41.4406 286.331 40.9928V34.5356Z" fill="#854442"/>
<path d="M286.331 47.4501V40.9928C283.508 41.4406 282.265 42.2327 280.466 44.31C281.85 47.9393 283.889 49.2081 286.331 47.4501Z" fill="#854442"/>
<path d="M277.215 34.5964C274.904 30.6147 276.302 27.0338 280.466 24.8117M277.215 34.5964L286.331 34.5356M277.215 34.5964C275.694 37.6767 275.644 40.1748 276.826 41.9272M286.331 34.5356V28.0784M286.331 34.5356V40.9928M286.331 28.0784V21.6211C283.518 20.6513 281.45 21.8469 280.466 24.8117M286.331 28.0784C285.009 28 284.016 27.8394 283.231 27.552M280.466 24.8117C281.18 26.2255 281.911 27.0683 283.231 27.552M286.331 40.9928V47.4501C283.889 49.2081 281.85 47.9393 280.466 44.31M286.331 40.9928C283.508 41.4406 282.265 42.2327 280.466 44.31M280.466 44.31C278.803 43.8385 277.57 43.0307 276.826 41.9272M280.466 30.4865C281.096 29.2232 280.308 28.0098 283.231 27.552M276.826 41.9272C276.826 41.9272 278.947 36.7766 282.343 38.0301" stroke="#FFF4E6" stroke-width="2.15538"/>
<path d="M329.669 40.9065V47.3638C332.482 48.3335 334.55 47.138 335.534 44.1731C334.82 42.7594 334.089 41.9166 332.769 41.4329C331.984 41.1454 330.991 40.9848 329.669 40.9065Z" fill="#854442"/>
<path d="M329.669 34.4493V40.9065C330.991 40.9848 331.984 41.1454 332.769 41.4329C334.089 41.9166 334.82 42.7594 335.534 44.1731C339.698 41.951 341.096 38.3702 338.785 34.3885L334.227 34.4189L329.669 34.4493Z" fill="#854442"/>
<path d="M329.669 34.4493L334.227 34.4189L338.785 34.3885C340.306 31.3081 340.356 28.8101 339.174 27.0576C338.43 25.9542 337.197 25.1464 335.534 24.6749C333.735 26.7522 332.492 27.5442 329.669 27.992V34.4493Z" fill="#854442"/>
<path d="M329.669 21.5348V27.992C332.492 27.5442 333.735 26.7522 335.534 24.6749C334.15 21.0456 332.111 19.7767 329.669 21.5348Z" fill="#854442"/>
<path d="M338.785 34.3885C341.096 38.3702 339.698 41.951 335.534 44.1731M338.785 34.3885C340.306 31.3081 340.356 28.8101 339.174 27.0576M338.785 34.3885L334.227 34.4189L329.669 34.4493M329.669 34.4493V40.9065M329.669 34.4493V27.992M329.669 40.9065V47.3638C332.482 48.3335 334.55 47.138 335.534 44.1731M329.669 40.9065C330.991 40.9848 331.984 41.1454 332.769 41.4329M335.534 44.1731C334.82 42.7594 334.089 41.9166 332.769 41.4329M329.669 27.992V21.5348C332.111 19.7767 334.15 21.0456 335.534 24.6749M329.669 27.992C332.492 27.5442 333.735 26.7522 335.534 24.6749M335.534 24.6749C337.197 25.1464 338.43 25.9542 339.174 27.0576M335.534 38.4983C334.904 39.7617 335.692 40.9751 332.769 41.4329M339.174 27.0576C339.174 27.0576 337.053 32.2082 333.657 30.9548" stroke="#FFF4E6" stroke-width="2.15538"/>
<path d="M324.173 34.8156C324.173 46.7194 316.935 57.6088 308.007 57.6088C299.08 57.6088 291.842 46.7194 291.842 34.8156C291.842 22.9117 299.08 11.8069 308.007 11.8069C316.935 11.8069 324.173 22.9117 324.173 34.8156Z" fill="#854442"/>
<path d="M308.007 57.6088C316.935 57.6088 324.173 46.7194 324.173 34.8156C324.173 22.9117 316.935 11.8069 308.007 11.8069M308.007 57.6088C299.08 57.6088 291.842 46.7194 291.842 34.8156C291.842 22.9117 299.08 11.8069 308.007 11.8069M308.007 57.6088C311.109 47.1703 311.82 40.9104 308.007 34.8156C303.072 26.9271 304.359 21.0231 308.007 11.8069" stroke="#FFF4E6" stroke-width="3.23307"/>
<path d="M330.208 21.614C330.208 9.6265 320.268 2 308.007 2C295.746 2 285.807 9.6265 285.807 21.614" stroke="#FFF4E6" stroke-width="3.23307"/>
<path d="M324.173 21.2908V48.2331" stroke="#FFF4E6" stroke-width="3.23307"/>
<path d="M324.173 21.2908V48.2331" stroke="#FFF4E6" stroke-width="3.23307"/>
<path d="M324.173 21.2908V48.2331" stroke="#FFF4E6" stroke-width="3.23307"/>
<path d="M291.842 21.2908V48.2331" stroke="#FFF4E6" stroke-width="3.23307"/>
<path d="M291.842 21.2908V48.2331" stroke="#FFF4E6" stroke-width="3.23307"/>
<path d="M291.842 21.2908V48.2331" stroke="#FFF4E6" stroke-width="3.23307"/>
</svg>
