<svg width="68" height="58" viewBox="0 0 68 58" fill="none" xmlns="http://www.w3.org/2000/svg">
<path d="M12.331 30.0784V23.6211C9.51811 22.6513 7.44973 23.8469 6.46578 26.8117C2.30198 29.0338 0.903753 32.6147 3.21485 36.5964C1.69426 39.6767 1.64351 42.1748 2.82566 43.9272C3.56998 45.0307 4.80307 45.8385 6.46578 46.31C7.85012 49.9393 9.88905 51.2081 12.331 49.4501V42.9928V36.5356V30.0784Z" fill="#3C2F2F" stroke="#FFF4E6" stroke-width="3.23"/>
<path d="M55.669 42.9065V49.3638C58.4819 50.3335 60.5503 49.138 61.5342 46.1731C65.698 43.951 67.0962 40.3702 64.7852 36.3885C66.3057 33.3081 66.3565 30.8101 65.1743 29.0576C64.43 27.9542 63.1969 27.1464 61.5342 26.6749C60.1499 23.0456 58.1109 21.7767 55.669 23.5348V29.992V36.4493V42.9065Z" fill="#3C2F2F" stroke="#FFF4E6" stroke-width="3.23"/>
<path d="M55.6691 23.2908C55.6691 11.5008 45.9675 4 34 4C22.0325 4 12.3309 11.5008 12.3309 23.2908" stroke="#FFF4E6" stroke-width="3.23307"/>
<path d="M50.3307 33.0087C50.3307 44.9126 43.0933 55.8019 34.1654 55.8019C25.2375 55.8019 18 44.9126 18 33.0087C18 21.1049 25.2375 10 34.1654 10C43.0933 10 50.3307 21.1049 50.3307 33.0087Z" fill="#4B3832"/>
<path d="M34.1654 55.8019C43.0933 55.8019 50.3307 44.9126 50.3307 33.0087C50.3307 21.1049 43.0933 10 34.1654 10M34.1654 55.8019C25.2375 55.8019 18 44.9126 18 33.0087C18 21.1049 25.2375 10 34.1654 10M34.1654 55.8019C37.2671 45.3634 37.9783 39.1035 34.1654 33.0087C29.2303 25.1202 30.5174 19.2162 34.1654 10" stroke="#FFF4E6" stroke-width="3.23307"/>
</svg>
