<svg width="68" height="60" viewBox="0 0 68 60" fill="none" xmlns="http://www.w3.org/2000/svg">
<path d="M12.331 28.0784V21.6211C9.51811 20.6513 7.44973 21.8469 6.46578 24.8117C7.17989 26.2255 7.91068 27.0683 9.23148 27.552C10.0163 27.8394 11.0093 28 12.331 28.0784Z" fill="#854442"/>
<path d="M12.331 34.5356V28.0784C11.0093 28 10.0163 27.8394 9.23148 27.552C7.91068 27.0683 7.17989 26.2255 6.46578 24.8117C2.30198 27.0338 0.903753 30.6147 3.21485 34.5964L12.331 34.5356Z" fill="#854442"/>
<path d="M12.331 34.5356L3.21485 34.5964C1.69426 37.6767 1.64351 40.1748 2.82566 41.9272C3.56998 43.0307 4.80307 43.8385 6.46578 44.31C8.2651 42.2327 9.50801 41.4406 12.331 40.9928V34.5356Z" fill="#854442"/>
<path d="M12.331 47.4501V40.9928C9.50801 41.4406 8.2651 42.2327 6.46578 44.31C7.85012 47.9393 9.88905 49.2081 12.331 47.4501Z" fill="#854442"/>
<path d="M3.21485 34.5964C0.903753 30.6147 2.30198 27.0338 6.46578 24.8117M3.21485 34.5964L12.331 34.5356M3.21485 34.5964C1.69426 37.6767 1.64351 40.1748 2.82566 41.9272M12.331 34.5356V28.0784M12.331 34.5356V40.9928M12.331 28.0784V21.6211C9.51811 20.6513 7.44973 21.8469 6.46578 24.8117M12.331 28.0784C11.0093 28 10.0163 27.8394 9.23148 27.552M6.46578 24.8117C7.17989 26.2255 7.91068 27.0683 9.23148 27.552M12.331 40.9928V47.4501C9.88905 49.2081 7.85012 47.9393 6.46578 44.31M12.331 40.9928C9.50801 41.4406 8.2651 42.2327 6.46578 44.31M6.46578 44.31C4.80307 43.8385 3.56998 43.0307 2.82566 41.9272M6.46578 30.4865C7.0955 29.2232 6.30839 28.0098 9.23148 27.552M2.82566 41.9272C2.82566 41.9272 4.94691 36.7766 8.34266 38.0301" stroke="#FFF4E6" stroke-width="2.15538"/>
<path d="M55.669 40.9065V47.3638C58.4819 48.3335 60.5503 47.138 61.5342 44.1731C60.8201 42.7594 60.0893 41.9166 58.7685 41.4329C57.9837 41.1454 56.9907 40.9848 55.669 40.9065Z" fill="#854442"/>
<path d="M55.669 34.4493V40.9065C56.9907 40.9848 57.9837 41.1454 58.7685 41.4329C60.0893 41.9166 60.8201 42.7594 61.5342 44.1731C65.698 41.951 67.0962 38.3702 64.7852 34.3885L60.2271 34.4189L55.669 34.4493Z" fill="#854442"/>
<path d="M55.669 34.4493L60.2271 34.4189L64.7852 34.3885C66.3057 31.3081 66.3565 28.8101 65.1743 27.0576C64.43 25.9542 63.1969 25.1464 61.5342 24.6749C59.7349 26.7522 58.492 27.5442 55.669 27.992V34.4493Z" fill="#854442"/>
<path d="M55.669 21.5348V27.992C58.492 27.5442 59.7349 26.7522 61.5342 24.6749C60.1499 21.0456 58.1109 19.7767 55.669 21.5348Z" fill="#854442"/>
<path d="M64.7852 34.3885C67.0962 38.3702 65.698 41.951 61.5342 44.1731M64.7852 34.3885C66.3057 31.3081 66.3565 28.8101 65.1743 27.0576M64.7852 34.3885L60.2271 34.4189L55.669 34.4493M55.669 34.4493V40.9065M55.669 34.4493V27.992M55.669 40.9065V47.3638C58.4819 48.3335 60.5503 47.138 61.5342 44.1731M55.669 40.9065C56.9907 40.9848 57.9837 41.1454 58.7685 41.4329M61.5342 44.1731C60.8201 42.7594 60.0893 41.9166 58.7685 41.4329M55.669 27.992V21.5348C58.1109 19.7767 60.1499 21.0456 61.5342 24.6749M55.669 27.992C58.492 27.5442 59.7349 26.7522 61.5342 24.6749M61.5342 24.6749C63.1969 25.1464 64.43 25.9542 65.1743 27.0576M61.5342 38.4983C60.9045 39.7617 61.6916 40.9751 58.7685 41.4329M65.1743 27.0576C65.1743 27.0576 63.0531 32.2082 59.6573 30.9548" stroke="#FFF4E6" stroke-width="2.15538"/>
<path d="M50.1728 34.8156C50.1728 46.7194 42.9353 57.6088 34.0074 57.6088C25.0795 57.6088 17.842 46.7194 17.842 34.8156C17.842 22.9117 25.0795 11.8069 34.0074 11.8069C42.9353 11.8069 50.1728 22.9117 50.1728 34.8156Z" fill="#854442"/>
<path d="M34.0074 57.6088C42.9353 57.6088 50.1728 46.7194 50.1728 34.8156C50.1728 22.9117 42.9353 11.8069 34.0074 11.8069M34.0074 57.6088C25.0795 57.6088 17.842 46.7194 17.842 34.8156C17.842 22.9117 25.0795 11.8069 34.0074 11.8069M34.0074 57.6088C37.1092 47.1703 37.8203 40.9104 34.0074 34.8156C29.0724 26.9271 30.3594 21.0231 34.0074 11.8069" stroke="#FFF4E6" stroke-width="3.23307"/>
<path d="M56.2079 21.614C56.2079 9.6265 46.2684 2 34.0074 2C21.7465 2 11.807 9.6265 11.807 21.614" stroke="#FFF4E6" stroke-width="3.23307"/>
<path d="M50.1729 21.2908V48.2331" stroke="#FFF4E6" stroke-width="3.23307"/>
<path d="M50.1729 21.2908V48.2331" stroke="#FFF4E6" stroke-width="3.23307"/>
<path d="M50.1729 21.2908V48.2331" stroke="#FFF4E6" stroke-width="3.23307"/>
<path d="M17.842 21.2908V48.2331" stroke="#FFF4E6" stroke-width="3.23307"/>
<path d="M17.842 21.2908V48.2331" stroke="#FFF4E6" stroke-width="3.23307"/>
<path d="M17.842 21.2908V48.2331" stroke="#FFF4E6" stroke-width="3.23307"/>
</svg>
